<svg width="214" height="48" viewBox="0 0 214 48" fill="none" xmlns="http://www.w3.org/2000/svg">
<path d="M25.3416 8.33938V30.9478H17.7755V28.6959C16.2743 30.4523 14.05 31.3281 11.1026 31.3231C9.13756 31.3471 7.20095 30.8526 5.48801 29.8894C3.79669 28.9185 2.41084 27.4937 1.48726 25.776C0.50979 23.8689 0 21.7566 0 19.6135C0 17.4705 0.50979 15.3582 1.48726 13.451C2.41237 11.7462 3.79887 10.3362 5.48801 9.38272C7.20383 8.4284 9.13937 7.93934 11.1026 7.96407C12.2568 7.90134 13.4116 8.0769 14.495 8.4798C15.5785 8.8827 16.5674 9.50432 17.4002 10.306V8.33938H25.3416ZM16.2067 23.5918C17.1446 22.4829 17.6202 21.0559 17.5353 19.606C17.6186 18.1746 17.1422 16.7669 16.2067 15.6803C15.2988 14.7728 14.0677 14.2629 12.7839 14.2629C11.5002 14.2629 10.269 14.7728 9.36115 15.6803C8.42363 16.7662 7.94458 18.1737 8.02507 19.606C7.94221 21.0569 8.4206 22.484 9.36115 23.5918C9.80815 24.0457 10.341 24.4061 10.9286 24.6522C11.5162 24.8982 12.1469 25.0249 12.7839 25.0249C13.421 25.0249 14.0517 24.8982 14.6393 24.6522C15.2269 24.4061 15.7597 24.0457 16.2067 23.5918Z" fill="#B51DAF"/>
<path d="M66.5652 10.4713C68.2215 12.1376 69.0497 14.6547 69.0497 18.0224V30.9479H61.0857V19.3135C61.1829 18.0774 60.866 16.8442 60.185 15.8081C59.8854 15.4323 59.5 15.1339 59.0611 14.9379C58.6222 14.742 58.1427 14.6543 57.6629 14.6822C57.1204 14.662 56.5803 14.7643 56.0826 14.9813C55.585 15.1982 55.1425 15.5245 54.7881 15.9357C53.99 17.0172 53.6041 18.3481 53.6997 19.6888V30.9479H45.7733V19.3135C45.7733 16.2284 44.6398 14.6822 42.358 14.6822C41.8085 14.659 41.2608 14.7596 40.7554 14.9766C40.25 15.1936 39.7998 15.5214 39.4381 15.9357C38.64 17.0172 38.2541 18.3481 38.3497 19.6888V30.9479H30.4233V8.33954H37.9744V10.7565C38.8019 9.84526 39.8297 9.13864 40.9769 8.69233C42.1728 8.22618 43.4464 7.99183 44.7299 8.00177C46.1936 7.97632 47.6447 8.27628 48.9784 8.87998C50.2287 9.46114 51.2863 10.3885 52.0258 11.5521C52.9177 10.4111 54.0781 9.50856 55.4036 8.92501C56.8205 8.29561 58.357 7.98064 59.9072 8.00177C61.1269 7.93587 62.3472 8.12105 63.4924 8.54583C64.6376 8.9706 65.6835 9.62594 66.5652 10.4713Z" fill="#B51DAF"/>
<path d="M89.2637 24.8152C90.1434 24.4586 90.9538 23.9505 91.6581 23.314L95.7865 27.6525C93.6447 30.0995 90.4471 31.323 86.1937 31.323C83.7861 31.3767 81.3997 30.8624 79.228 29.8218C77.82 29.1029 76.5745 28.1027 75.5686 26.8831C74.5627 25.6634 73.8179 24.2503 73.3803 22.7311C72.9426 21.212 72.8214 19.6192 73.0242 18.0513C73.227 16.4834 73.7495 14.9739 74.5592 13.6161C75.6514 11.8456 77.2094 10.4097 79.0629 9.46523C81.042 8.44804 83.2406 7.93253 85.4656 7.96401C87.5455 7.94517 89.6013 8.41029 91.4705 9.32261C93.2703 10.2038 94.7827 11.5783 95.8315 13.2858C96.9502 15.154 97.5151 17.3016 97.4604 19.4784L81.3147 22.5634C82.1754 24.3698 83.8868 25.2756 86.4489 25.2806C87.4078 25.3002 88.3621 25.1424 89.2637 24.8152ZM82.1479 14.8696C81.2234 15.8607 80.7039 17.1623 80.6917 18.5176L89.8342 16.7612C89.574 15.854 89.0161 15.0609 88.2504 14.5093C87.4349 13.9341 86.4558 13.6366 85.4581 13.6611C84.8537 13.6327 84.2498 13.7249 83.6814 13.9324C83.1131 14.1399 82.5918 14.4585 82.1479 14.8696Z" fill="#B51DAF"/>
<path d="M115.685 30.0319C114.931 30.4847 114.106 30.8094 113.246 30.9927C112.24 31.2165 111.213 31.3273 110.183 31.3229C107.236 31.3229 104.984 30.5999 103.428 29.1537C101.851 27.7125 101.071 25.5583 101.071 22.6909V3.29517H108.99V9.17995H114.124V15.1023H108.99V22.6084C108.944 23.3063 109.17 23.9948 109.62 24.5299C109.843 24.754 110.111 24.9286 110.406 25.0424C110.7 25.1562 111.016 25.2066 111.332 25.1905C112.19 25.2082 113.034 24.962 113.748 24.4849L115.685 30.0319Z" fill="#B51DAF"/>
<path d="M140.23 10.471C141.941 12.1374 142.797 14.6544 142.797 18.0221V30.9477H134.871V19.3132C134.871 16.2257 133.635 14.6819 131.163 14.6819C130.554 14.6537 129.946 14.7579 129.381 14.9872C128.816 15.2166 128.307 15.5657 127.89 16.0105C126.986 17.1392 126.546 18.5697 126.659 20.0113V30.9477H118.733V0H126.659V10.426C127.534 9.6108 128.569 8.98703 129.699 8.59449C130.904 8.16853 132.174 7.95519 133.452 7.96397C134.692 7.90587 135.931 8.09788 137.096 8.52858C138.26 8.95928 139.326 9.61986 140.23 10.471Z" fill="#B51DAF"/>
<path d="M171.538 8.33936V26.8194C171.538 31.0228 170.42 34.1729 168.183 36.2696C165.931 38.3713 162.726 39.4146 158.522 39.4146C156.449 39.4307 154.383 39.1784 152.375 38.664C150.629 38.2413 148.979 37.4926 147.511 36.4572L150.393 30.9102C151.385 31.7145 152.525 32.3164 153.749 32.6817C155.048 33.103 156.405 33.3208 157.772 33.3272C159.773 33.3272 161.247 32.8693 162.193 31.9536C162.696 31.4046 163.081 30.7584 163.325 30.0549C163.569 29.3513 163.667 28.6053 163.612 27.8627V27.3598C162.767 28.1623 161.771 28.7896 160.682 29.2057C159.594 29.6218 158.434 29.8185 157.269 29.7843C155.991 29.847 154.713 29.6498 153.513 29.2047C152.313 28.7596 151.216 28.0758 150.288 27.1947C148.547 25.4783 147.676 22.8937 147.676 19.4409V8.33936H155.603V18.1423C155.603 19.8687 155.923 21.1197 156.563 21.8954C156.907 22.293 157.337 22.6056 157.822 22.8088C158.306 23.012 158.831 23.1001 159.356 23.0663C159.934 23.0842 160.51 22.9737 161.041 22.7427C161.571 22.5117 162.044 22.1659 162.426 21.7302C163.298 20.5869 163.72 19.1633 163.612 17.7295V8.33936H171.538Z" fill="#B51DAF"/>
<path d="M179.254 30.6775C177.698 30.3597 176.205 29.7892 174.833 28.9886L177.213 23.5693C178.355 24.2481 179.592 24.7539 180.883 25.0705C182.256 25.4397 183.672 25.629 185.094 25.6334C186.022 25.6903 186.953 25.5549 187.826 25.2356C188.062 25.1489 188.266 24.9926 188.41 24.7875C188.555 24.5824 188.634 24.3382 188.637 24.0872C188.637 23.5843 188.314 23.2315 187.661 23.0213C186.643 22.7404 185.604 22.5397 184.554 22.4208C182.997 22.2448 181.457 21.9512 179.945 21.5426C178.688 21.1881 177.554 20.4948 176.665 19.5385C175.692 18.4084 175.199 16.9433 175.291 15.4551C175.272 14.06 175.727 12.6998 176.582 11.597C177.567 10.3816 178.864 9.45774 180.335 8.92484C182.238 8.22849 184.254 7.89496 186.28 7.94154C187.919 7.94382 189.554 8.11231 191.159 8.44445C192.572 8.70656 193.937 9.18507 195.205 9.8631L192.855 15.26C190.866 14.1527 188.624 13.5787 186.348 13.5936C185.409 13.5373 184.469 13.6858 183.593 14.029C183.35 14.1127 183.137 14.2663 182.98 14.4706C182.824 14.6749 182.732 14.9208 182.715 15.1774C182.715 15.7028 183.037 16.0706 183.675 16.2808C184.713 16.5765 185.772 16.7923 186.843 16.9263C188.407 17.1415 189.954 17.4625 191.474 17.8871C192.698 18.2463 193.8 18.9313 194.664 19.8687C195.625 20.9811 196.113 22.425 196.023 23.892C196.033 25.2743 195.579 26.6199 194.732 27.7126C193.729 28.9339 192.406 29.8514 190.911 30.3623C188.963 31.0424 186.909 31.3653 184.846 31.3155C182.964 31.3214 181.087 31.1072 179.254 30.6775Z" fill="#B51DAF"/>
<path d="M214 30.0319C213.246 30.4847 212.421 30.8094 211.561 30.9927C210.555 31.2165 209.528 31.3273 208.498 31.3229C205.551 31.3229 203.299 30.5999 201.743 29.1537C200.186 27.7075 199.403 25.5533 199.393 22.6909V3.29517H207.312V9.17995H212.446V15.1023H207.312V22.6084C207.266 23.3063 207.492 23.9948 207.943 24.5299C208.166 24.754 208.433 24.9286 208.728 25.0424C209.023 25.1562 209.338 25.2066 209.654 25.1905C210.513 25.2082 211.357 24.962 212.071 24.4849L214 30.0319Z" fill="#B51DAF"/>
<path d="M9.13604 33.7473V44.2559H7.83748V43.0324C7.54217 43.438 7.14992 43.7632 6.69656 43.9781C6.22584 44.1944 5.71335 44.3046 5.19534 44.3009C4.51411 44.3132 3.84144 44.1476 3.24375 43.8205C2.6773 43.5094 2.21125 43.0433 1.90016 42.4769C1.57975 41.8601 1.41248 41.1753 1.41248 40.4803C1.41248 39.7853 1.57975 39.1004 1.90016 38.4837C2.2137 37.921 2.67932 37.458 3.24375 37.1476C3.84144 36.8205 4.51411 36.6549 5.19534 36.6672C5.71158 36.6574 6.2238 36.7598 6.69656 36.9674C7.14485 37.1664 7.53495 37.4764 7.82998 37.8682V33.7473H9.13604ZM6.56896 42.7546C6.95099 42.5356 7.26325 42.2129 7.46969 41.8239C7.69476 41.4015 7.80843 40.9288 7.79996 40.4503C7.80742 39.9695 7.69384 39.4945 7.46969 39.0691C7.26278 38.6824 6.95046 38.3623 6.56896 38.1459C6.17629 37.9289 5.73399 37.8177 5.28541 37.8231C4.83401 37.8139 4.38832 37.9253 3.99436 38.1459C3.61231 38.3641 3.29799 38.6836 3.08612 39.0691C2.86196 39.4945 2.7484 39.9695 2.75586 40.4503C2.74738 40.9288 2.86104 41.4015 3.08612 41.8239C3.29783 42.2115 3.61203 42.5335 3.99436 42.7546C4.38631 42.981 4.83293 43.0952 5.28541 43.0849C5.73234 43.1007 6.17542 42.9971 6.56896 42.7847V42.7546Z" fill="white"/>
<path d="M20.0648 42.2142L20.8154 43.0924C20.4758 43.4888 20.0459 43.7977 19.5619 43.9932C19.0275 44.2064 18.4559 44.3111 17.8805 44.3009C17.1477 44.3175 16.4224 44.1497 15.7713 43.813C15.1779 43.5056 14.6854 43.034 14.3527 42.4544C14.0156 41.8516 13.8422 41.171 13.8498 40.4803C13.8409 39.7938 14.009 39.1165 14.3376 38.5137C14.6526 37.9463 15.1174 37.4764 15.6812 37.1551C16.2593 36.8488 16.9036 36.6887 17.5578 36.6887C18.212 36.6887 18.8562 36.8488 19.4343 37.1551C19.9856 37.4576 20.4447 37.9038 20.7629 38.4462C21.0989 39.0307 21.275 39.6935 21.2733 40.3677L15.336 41.5312C15.5073 42.0286 15.8437 42.4524 16.2892 42.7322C16.7749 43.0262 17.3357 43.1722 17.903 43.1525C18.3101 43.1636 18.7146 43.0854 19.0881 42.9233C19.4616 42.7612 19.795 42.5192 20.0648 42.2142ZM16.3118 38.1309C15.9428 38.3479 15.6434 38.6656 15.4485 39.0467C15.2312 39.4659 15.1227 39.9331 15.1333 40.4053V40.5479L19.9222 39.6471C19.8165 39.1209 19.5264 38.6498 19.104 38.3186C18.6767 37.9818 18.1469 37.8016 17.6028 37.8081C17.1566 37.8023 16.7166 37.9136 16.3268 38.1309H16.3118Z" fill="white"/>
<path d="M26.3775 44.0534C25.8971 43.9377 25.4451 43.7258 25.049 43.4304L25.6119 42.3571C25.9794 42.608 26.3849 42.7981 26.8129 42.92C27.2753 43.06 27.7559 43.1308 28.239 43.1302C29.425 43.1302 30.018 42.7924 30.018 42.1169C30.0216 42.0145 30.0018 41.9126 29.9602 41.819C29.9186 41.7253 29.8562 41.6424 29.7778 41.5764C29.6008 41.4387 29.3959 41.3414 29.1773 41.2912C28.9371 41.2311 28.5993 41.1636 28.1565 41.0885C27.6481 41.0185 27.1461 40.908 26.6553 40.7583C26.2808 40.6394 25.9425 40.4276 25.672 40.1427C25.3842 39.7995 25.2391 39.3588 25.2666 38.9117C25.2587 38.5907 25.3324 38.2729 25.4807 37.988C25.6291 37.7031 25.8472 37.4605 26.1148 37.2829C26.7809 36.8436 27.5697 36.628 28.3666 36.6674C28.8724 36.6679 29.3763 36.7284 29.8679 36.8476C30.2991 36.9477 30.7119 37.1149 31.0914 37.343L30.5134 38.4164C29.8697 38.0101 29.1201 37.8038 28.3591 37.8234C27.9034 37.7963 27.449 37.895 27.0456 38.1086C26.9085 38.1806 26.7935 38.2884 26.7129 38.4206C26.6322 38.5528 26.589 38.7044 26.5877 38.8592C26.5846 38.9696 26.6058 39.0792 26.6499 39.1804C26.694 39.2816 26.7599 39.3719 26.8429 39.4447C27.0304 39.5885 27.2448 39.6931 27.4734 39.7524C27.7211 39.82 28.0739 39.895 28.5243 39.9776C29.0181 40.0595 29.5068 40.1698 29.988 40.3079C30.3515 40.424 30.6795 40.6307 30.9412 40.9084C31.2194 41.2386 31.3593 41.6635 31.3316 42.0943C31.3388 42.4149 31.2632 42.7319 31.112 43.0147C30.9607 43.2974 30.739 43.5363 30.4684 43.7081C29.7606 44.1464 28.935 44.356 28.1039 44.3086C27.5193 44.3051 26.9382 44.2192 26.3775 44.0534Z" fill="white"/>
<path d="M35.9103 35.046C35.827 34.9642 35.7608 34.8667 35.7157 34.7591C35.6705 34.6515 35.6472 34.5359 35.6472 34.4192C35.6472 34.3025 35.6705 34.187 35.7157 34.0794C35.7608 33.9718 35.827 33.8742 35.9103 33.7925C35.9965 33.7058 36.0996 33.6378 36.2133 33.5926C36.3269 33.5474 36.4486 33.526 36.5708 33.5298C36.6906 33.5259 36.81 33.5458 36.9221 33.5883C37.0342 33.6309 37.1367 33.6951 37.2238 33.7775C37.3085 33.8557 37.3757 33.9511 37.421 34.0571C37.4663 34.1632 37.4886 34.2777 37.4865 34.393C37.4882 34.5127 37.4659 34.6315 37.4207 34.7424C37.3756 34.8533 37.3087 34.954 37.2238 35.0385C37.1381 35.1232 37.0359 35.1896 36.9236 35.2335C36.8114 35.2774 36.6913 35.2978 36.5708 35.2937C36.4498 35.2981 36.3291 35.2785 36.2157 35.236C36.1023 35.1935 35.9985 35.1289 35.9103 35.046ZM35.9103 36.7349H37.2689V44.241H35.9103V36.7349Z" fill="white"/>
<path d="M49.8116 36.7349V43.2051C49.8558 43.7291 49.792 44.2566 49.6242 44.755C49.4563 45.2534 49.188 45.712 48.8358 46.1025C48.0284 46.7847 46.9849 47.1217 45.9309 47.0407C45.2477 47.0429 44.5677 46.9468 43.9118 46.7555C43.3392 46.5985 42.8085 46.3165 42.358 45.9298L43.0035 44.879C43.3825 45.1997 43.8213 45.4421 44.2946 45.5921C44.8063 45.7691 45.3444 45.8579 45.8859 45.8548C46.5898 45.9146 47.2888 45.6934 47.83 45.2393C48.0537 44.9793 48.2239 44.6778 48.3309 44.3519C48.4378 44.026 48.4793 43.6822 48.453 43.3402V42.7472C48.1396 43.132 47.7343 43.4314 47.2745 43.6179C46.7985 43.8143 46.2882 43.9139 45.7733 43.9107C45.0978 43.9177 44.4306 43.7605 43.8292 43.4528C43.2646 43.1579 42.7939 42.7106 42.4706 42.1618C42.1484 41.5888 41.9791 40.9426 41.9791 40.2852C41.9791 39.6279 42.1484 38.9816 42.4706 38.4087C42.7945 37.8641 43.2654 37.4218 43.8292 37.1327C44.4312 36.8273 45.0984 36.6727 45.7733 36.6823C46.314 36.6791 46.8498 36.7838 47.3496 36.9901C47.8172 37.1916 48.2273 37.5063 48.543 37.9058V36.7499L49.8116 36.7349ZM47.237 42.4095C47.6164 42.2123 47.9335 41.9134 48.1527 41.5463C48.3747 41.1608 48.4888 40.7226 48.483 40.2777C48.4912 39.9483 48.4284 39.6209 48.2989 39.3178C48.1694 39.0147 47.9762 38.7431 47.7324 38.5213C47.2268 38.0676 46.5647 37.8281 45.8859 37.8533C45.2091 37.8352 44.5511 38.077 44.0469 38.5288C43.8031 38.7506 43.6099 39.0222 43.4803 39.3253C43.3508 39.6284 43.2881 39.9558 43.2963 40.2852C43.2893 40.7312 43.4062 41.1703 43.6341 41.5538C43.8511 41.9227 44.1687 42.2221 44.5498 42.417C44.962 42.6242 45.417 42.7322 45.8784 42.7322C46.3398 42.7322 46.7948 42.6242 47.207 42.417L47.237 42.4095Z" fill="white"/>
<path d="M61.476 37.4929C61.7735 37.8171 62.0016 38.1988 62.1461 38.6145C62.2907 39.0301 62.3488 39.4709 62.3167 39.9098V44.2183H60.9656V40.0675C61.0065 39.4749 60.8184 38.8892 60.4402 38.4311C60.2425 38.2394 60.0067 38.0915 59.748 37.9971C59.4893 37.9027 59.2137 37.8639 58.939 37.8832C58.6206 37.8658 58.302 37.9134 58.0026 38.0231C57.7033 38.1328 57.4293 38.3023 57.1976 38.5212C56.9754 38.7719 56.8053 39.0642 56.6971 39.3812C56.5889 39.6982 56.5446 40.0335 56.567 40.3677V44.2183H55.2084V36.7122H56.507V37.8456C56.7879 37.4512 57.1724 37.1421 57.6179 36.9524C58.1188 36.7411 58.6581 36.6363 59.2017 36.6447C59.6184 36.6254 60.0347 36.6905 60.4256 36.8363C60.8164 36.9821 61.1737 37.2054 61.476 37.4929Z" fill="white"/>
<path d="M75.4974 43.7832C74.9125 43.4659 74.4268 42.9931 74.0937 42.4171C73.7592 41.8143 73.5837 41.1362 73.5837 40.4467C73.5837 39.7573 73.7592 39.0792 74.0937 38.4764C74.4255 37.9032 74.9119 37.435 75.4974 37.1253C76.1249 36.7904 76.8279 36.6224 77.539 36.6374C78.1658 36.6256 78.7862 36.7646 79.348 37.0427C79.8692 37.3067 80.3002 37.7195 80.5865 38.2287L79.5582 38.8967C79.3414 38.5563 79.0384 38.2792 78.68 38.0936C78.3222 37.9111 77.9255 37.8184 77.524 37.8234C77.0632 37.8152 76.6081 37.9264 76.2029 38.1461C75.8154 38.3596 75.4975 38.6801 75.2872 39.0694C75.0648 39.4971 74.9487 39.9721 74.9487 40.4543C74.9487 40.9364 75.0648 41.4114 75.2872 41.8391C75.4975 42.2284 75.8154 42.5489 76.2029 42.7624C76.6081 42.9821 77.0632 43.0933 77.524 43.0851C77.925 43.0927 78.3217 43.0026 78.68 42.8224C79.0371 42.6316 79.3394 42.3525 79.5582 42.0118L80.5865 42.6648C80.2989 43.1749 79.8684 43.5897 79.348 43.8583C78.788 44.1421 78.1668 44.2839 77.539 44.2711C76.8283 44.2824 76.1262 44.1147 75.4974 43.7832Z" fill="white"/>
<path d="M87.4997 37.0276C88.0273 36.7888 88.6023 36.6733 89.1811 36.6898V38.0034H88.8734C88.5558 37.9841 88.2378 38.0323 87.9402 38.1449C87.6426 38.2574 87.3723 38.4318 87.147 38.6564C86.6987 39.1749 86.4723 39.8489 86.5164 40.5329V44.286H85.1578V36.7799H86.4564V38.0409C86.6878 37.6009 87.0532 37.246 87.4997 37.0276Z" fill="white"/>
<path d="M93.6922 35.046C93.6089 34.9642 93.5427 34.8667 93.4976 34.7591C93.4524 34.6515 93.4291 34.5359 93.4291 34.4192C93.4291 34.3025 93.4524 34.187 93.4976 34.0794C93.5427 33.9717 93.6089 33.8742 93.6922 33.7925C93.8719 33.6289 94.1061 33.5383 94.349 33.5383C94.5919 33.5383 94.8261 33.6289 95.0058 33.7925C95.0905 33.8707 95.1577 33.966 95.2029 34.0721C95.2482 34.1782 95.2705 34.2926 95.2685 34.408C95.2702 34.5277 95.2478 34.6465 95.2027 34.7574C95.1575 34.8683 95.0906 34.969 95.0058 35.0535C94.92 35.1382 94.8179 35.2046 94.7056 35.2484C94.5933 35.2923 94.4732 35.3128 94.3527 35.3087C94.2307 35.3107 94.1095 35.2885 93.9962 35.2435C93.8828 35.1984 93.7795 35.1312 93.6922 35.046ZM93.6922 36.7348H95.0508V44.241H93.6922V36.7348Z" fill="white"/>
<path d="M107.496 36.7349V44.241H106.197V43.0326C105.902 43.4412 105.507 43.7669 105.049 43.9783C104.578 44.1953 104.066 44.3055 103.548 44.3011C102.869 44.3135 102.199 44.1478 101.604 43.8207C101.033 43.5121 100.564 43.0456 100.253 42.4771C99.9321 41.8603 99.7648 41.1755 99.7648 40.4805C99.7648 39.7855 99.9321 39.1006 100.253 38.4839C100.567 37.9192 101.035 37.4557 101.604 37.1478C102.199 36.8207 102.869 36.655 103.548 36.6674C104.064 36.6581 104.576 36.7605 105.049 36.9676C105.495 37.1668 105.883 37.4769 106.175 37.8684V36.7349H107.496ZM104.921 42.7849C105.307 42.5682 105.622 42.2451 105.83 41.8541C106.052 41.4311 106.163 40.9583 106.152 40.4805C106.162 40.0004 106.051 39.5254 105.83 39.0994C105.624 38.7093 105.308 38.3883 104.921 38.1761C104.525 37.9645 104.083 37.8539 103.634 37.8539C103.185 37.8539 102.743 37.9645 102.347 38.1761C101.965 38.3925 101.653 38.7126 101.446 39.0994C101.218 39.5235 101.105 39.9993 101.116 40.4805C101.104 40.9594 101.218 41.433 101.446 41.8541C101.652 42.2431 101.965 42.5658 102.347 42.7849C102.741 43.0017 103.184 43.1154 103.634 43.1154C104.084 43.1154 104.527 43.0017 104.921 42.7849Z" fill="white"/>
<path d="M116.856 43.7832C116.635 43.9634 116.38 44.0962 116.105 44.1735C115.812 44.2574 115.509 44.3003 115.205 44.3011C114.888 44.3211 114.57 44.2784 114.27 44.1753C113.97 44.0723 113.693 43.911 113.456 43.7006C113.237 43.4694 113.068 43.1952 112.961 42.8954C112.854 42.5956 112.81 42.2768 112.833 41.9592V35.0986H114.184V36.735H116.331V37.8534H114.184V41.9067C114.162 42.245 114.273 42.5785 114.492 42.8374C114.604 42.9495 114.74 43.0362 114.888 43.0918C115.037 43.1475 115.196 43.1708 115.355 43.1602C115.74 43.1701 116.117 43.0453 116.421 42.8074L116.856 43.7832Z" fill="white"/>
<path d="M121.307 35.046C121.224 34.9642 121.158 34.8667 121.113 34.7591C121.067 34.6515 121.044 34.5359 121.044 34.4192C121.044 34.3025 121.067 34.187 121.113 34.0794C121.158 33.9718 121.224 33.8742 121.307 33.7925C121.393 33.7058 121.497 33.6378 121.61 33.5926C121.724 33.5474 121.845 33.526 121.968 33.5298C122.088 33.5259 122.207 33.5458 122.319 33.5883C122.431 33.6309 122.534 33.6951 122.621 33.7775C122.705 33.8557 122.773 33.9511 122.818 34.0571C122.863 34.1632 122.886 34.2777 122.883 34.393C122.885 34.5127 122.863 34.6315 122.818 34.7424C122.773 34.8533 122.706 34.954 122.621 35.0385C122.535 35.1232 122.433 35.1896 122.321 35.2335C122.208 35.2774 122.088 35.2978 121.968 35.2937C121.847 35.2981 121.726 35.2785 121.613 35.236C121.499 35.1935 121.395 35.1289 121.307 35.046ZM121.307 36.7349H122.666V44.241H121.285L121.307 36.7349Z" fill="white"/>
<path d="M134.668 36.7349L131.395 44.241H130.014L126.734 36.7349H128.115L130.69 42.7397L133.309 36.7349H134.668Z" fill="white"/>
<path d="M139.75 43.7829C139.171 43.4627 138.691 42.9903 138.361 42.4168C138.031 41.8124 137.858 41.1349 137.858 40.4464C137.858 39.7579 138.031 39.0805 138.361 38.4761C138.689 37.9052 139.17 37.4373 139.75 37.125C140.369 36.8045 141.056 36.6372 141.754 36.6372C142.451 36.6372 143.138 36.8045 143.758 37.125C144.334 37.4397 144.812 37.9072 145.139 38.4761C145.469 39.0805 145.642 39.7579 145.642 40.4464C145.642 41.1349 145.469 41.8124 145.139 42.4168C144.81 42.9884 144.333 43.4604 143.758 43.7829C143.138 44.1034 142.451 44.2707 141.754 44.2707C141.056 44.2707 140.369 44.1034 139.75 43.7829ZM143.052 42.7546C143.43 42.5328 143.739 42.2106 143.945 41.8238C144.168 41.4008 144.279 40.928 144.268 40.4502C144.278 39.9701 144.167 39.4952 143.945 39.0691C143.739 38.6843 143.43 38.3646 143.052 38.1458C142.655 37.926 142.207 37.8147 141.754 37.8231C141.302 37.8149 140.857 37.9263 140.463 38.1458C140.083 38.3645 139.771 38.684 139.562 39.0691C139.338 39.4945 139.224 39.9694 139.232 40.4502C139.223 40.9287 139.337 41.4015 139.562 41.8238C139.771 42.2112 140.082 42.5333 140.463 42.7546C140.855 42.9802 141.301 43.0944 141.754 43.0848C142.206 43.1034 142.654 42.9997 143.052 42.7846V42.7546Z" fill="white"/>
</svg>
