<svg width="87" height="103" viewBox="0 0 87 103" fill="none" xmlns="http://www.w3.org/2000/svg">
<path d="M85.9542 76.7496C85.9789 76.7137 86.0036 76.6778 86.026 76.6396C86.0484 76.6065 86.0686 76.572 86.0867 76.5363L86.1406 76.424C86.1563 76.3858 86.172 76.3477 86.1855 76.3095C86.1989 76.2713 86.2102 76.2331 86.2214 76.1927C86.2326 76.1523 86.2416 76.1141 86.2483 76.0737C86.2551 76.0333 86.2618 75.9929 86.2686 75.9525C86.2708 75.9113 86.2708 75.8701 86.2686 75.8289C86.2686 75.7885 86.2686 75.7504 86.2686 75.7099C86.2686 75.6695 86.2686 75.6224 86.2686 75.5797C86.2697 75.5617 86.2697 75.5438 86.2686 75.5258C86.2654 75.5046 86.2609 75.4836 86.2551 75.4629C86.2483 75.4198 86.2393 75.3771 86.2281 75.3349C86.2281 75.2945 86.2057 75.2563 86.1945 75.2159C86.1832 75.1755 86.1675 75.1396 86.1518 75.1014C86.1361 75.0632 86.1159 75.0228 86.0956 74.9824C86.0754 74.942 86.0799 74.933 86.0799 74.933L44.7395 0.971526L44.708 0.922123L44.6766 0.870473L44.6564 0.839036L44.6205 0.787389L44.5868 0.744723L44.5666 0.720022V0.708797L44.5239 0.663884L44.4902 0.62571L44.47 0.605501L44.4543 0.58978L44.4116 0.549362L44.3712 0.515681L44.3555 0.49996L44.3353 0.484243L44.2859 0.446066L44.2432 0.416876L44.2297 0.405648L44.205 0.392175L44.1489 0.354001L44.104 0.3293L44.077 0.315827L44.0052 0.279898L43.9648 0.259689H43.9401L43.8592 0.228251L43.8211 0.214775H43.8053L43.7267 0.192322H43.6931H43.6706H43.6437H43.5718H43.5404H43.5089H43.4752H43.4169H43.1923H43.1407H43.1025H43.0778H43.0329H42.9722H42.9408H42.9251L42.8757 0.205794L42.8106 0.226004H42.7836L42.732 0.246213L42.6691 0.268669L42.6287 0.286634L42.6062 0.297863H42.5838L42.5276 0.324808L42.4917 0.342773L42.4445 0.371966L42.3974 0.401156L42.3659 0.421365H42.3525L42.3076 0.45505L42.2671 0.484243L42.2424 0.504452L42.2245 0.520169L42.184 0.556099L42.1459 0.592028L42.0673 0.605501L42.0493 0.62571L42.0111 0.666132L41.9752 0.70655L41.964 0.720022C41.9565 0.728452 41.9498 0.737465 41.9438 0.746971C41.9303 0.760444 41.9191 0.776164 41.9079 0.789637L41.8742 0.836792L41.854 0.868229L41.8203 0.919876C41.8203 0.93784 41.8001 0.951313 41.7911 0.969278L0.448384 74.933C0.448384 74.9532 0.430418 74.9734 0.419191 74.9936C0.407963 75.0138 0.381015 75.0722 0.365296 75.1149C0.349578 75.1575 0.336107 75.189 0.322634 75.2271C0.309161 75.2653 0.297932 75.3057 0.286705 75.3462C0.275477 75.3866 0.26874 75.4315 0.262003 75.4719C0.255267 75.5123 0.250776 75.5146 0.248531 75.537C0.246285 75.5595 0.248531 75.573 0.248531 75.5909C0.246294 75.6336 0.246294 75.6763 0.248531 75.7189C0.246283 75.7593 0.246283 75.7998 0.248531 75.8402C0.248531 75.8828 0.248531 75.9233 0.259759 75.9637C0.270987 76.0041 0.259756 76.0445 0.27772 76.0849C0.295685 76.1254 0.295686 76.1635 0.306914 76.2017C0.318141 76.2399 0.32937 76.2826 0.342843 76.323C0.356316 76.3634 0.372034 76.3971 0.387753 76.433C0.403002 76.4724 0.421013 76.5107 0.441648 76.5475C0.459612 76.5835 0.479821 76.6171 0.50003 76.6508C0.522647 76.6889 0.547387 76.7256 0.574134 76.7609C0.586646 76.7772 0.597904 76.7945 0.607816 76.8125L0.654973 76.8641C0.672938 76.8844 0.688656 76.9046 0.70662 76.9225C0.724584 76.9405 0.789705 77.0034 0.83237 77.0415L0.870544 77.0775C0.931173 77.1246 0.991805 77.1673 1.05468 77.2077H1.06815L42.3862 102.014H42.3996L42.4625 102.048L42.4939 102.066L42.5433 102.088L42.5883 102.111L42.6197 102.122H42.6421L42.714 102.149H42.7387L42.7836 102.16L42.842 102.176L42.8914 102.189L42.9633 102.203H43.0127H43.0508H43.0733C43.1339 102.203 43.1923 102.203 43.2529 102.203H43.2642C43.3225 102.203 43.3832 102.203 43.4416 102.203H43.4663H43.5044H43.5538L43.6234 102.189L43.6751 102.176L43.7335 102.16L43.7761 102.149H43.8031L43.8749 102.122H43.8952L43.9288 102.111L43.9737 102.088L44.0231 102.066L44.0546 102.048L44.1175 102.014H44.1309L85.4602 77.2032C85.5242 77.1637 85.5857 77.1202 85.6443 77.073L85.6847 77.0371C85.7281 76.9997 85.7693 76.96 85.8082 76.918C85.8266 76.8997 85.8439 76.8802 85.8599 76.8597C85.8756 76.8417 85.8935 76.826 85.907 76.808C85.9205 76.79 85.9407 76.7653 85.9542 76.7496ZM67.8371 69.2607L67.0243 69.0362L50.2972 17.8692L81.1105 73.0063L67.8371 69.2607ZM43.2574 68.7218H23.1621L43.2574 7.2568L63.355 68.7218H43.2574ZM43.2574 72.1148H62.3153L43.2574 97.714L24.1995 72.1148H43.2574ZM36.2289 17.8692L19.4928 69.0317L18.6777 69.2562L5.4043 73.0018L36.2289 17.8692ZM12.6507 74.4839L20.1687 72.3641L36.7858 94.6848L6.17901 76.3117L12.6507 74.4839ZM49.7515 94.6938L66.3685 72.3731L80.3605 76.3207L49.7515 94.6938Z" fill="url(#paint0_linear_163_108)"/>
<defs>
<linearGradient id="paint0_linear_163_108" x1="13.239" y1="89.4549" x2="73.2758" y2="29.4181" gradientUnits="userSpaceOnUse">
<stop stop-color="#B51DAF"/>
<stop offset="1" stop-color="#82157E"/>
</linearGradient>
</defs>
</svg>
