<svg width="191" height="196" viewBox="0 0 191 196" fill="none" xmlns="http://www.w3.org/2000/svg">
<path d="M165.315 52.5255C165.398 52.1724 165.553 51.8402 165.77 51.55C165.988 51.2598 166.263 51.0177 166.579 50.8391C166.88 50.6516 167.216 50.526 167.567 50.4697C167.917 50.4134 168.276 50.4274 168.621 50.511C168.966 50.5947 169.291 50.7462 169.577 50.9567C169.863 51.1672 170.104 51.4326 170.286 51.7373C170.472 52.0378 170.596 52.3723 170.651 52.7212C170.706 53.0701 170.691 53.4265 170.607 53.7696C170.431 54.477 169.982 55.0857 169.357 55.4624C168.733 55.8391 167.985 55.9531 167.277 55.7793C166.934 55.6955 166.612 55.5436 166.328 55.3326C166.045 55.1216 165.807 54.8558 165.629 54.551C165.442 54.2525 165.317 53.9189 165.263 53.5706C165.209 53.2224 165.227 52.8668 165.315 52.5255V52.5255Z" fill="white"/>
<path d="M190.052 81.8478L190.696 89.4961C190.873 91.2142 190.643 92.95 190.022 94.562C189.462 96.0167 188.494 97.2784 187.233 98.1953C185.901 99.0987 184.358 99.6443 182.754 99.78C181.149 99.9157 179.537 99.6368 178.072 98.97C176.672 98.2789 175.502 97.1972 174.703 95.8555C173.825 94.3697 173.308 92.6982 173.194 90.9759L172.55 83.3276L190.052 81.8478ZM175.941 90.5919C176.014 91.7655 176.364 92.905 176.962 93.9176C177.503 94.8197 178.301 95.5405 179.253 95.988C180.27 96.4233 181.378 96.6022 182.48 96.509C183.582 96.4158 184.645 96.0534 185.574 95.4535C186.438 94.8522 187.104 94.0072 187.487 93.0261C187.904 91.928 188.058 90.7475 187.936 89.5792L187.577 85.3306L175.581 86.3456L175.941 90.5919Z" fill="white"/>
<path d="M174.461 116.788L171.766 116.413L173.58 103.371L190.97 105.794L189.203 118.488L186.481 118.116L187.801 108.651L183.283 108.011L182.114 116.413L179.455 116.043L180.625 107.645L175.83 106.971L174.461 116.788Z" fill="white"/>
<path d="M170.641 121.093C171.423 120.03 172.234 119.256 173.075 118.771L175.096 120.675C174.257 121.226 173.516 121.914 172.907 122.712C172.24 123.551 171.717 124.494 171.357 125.503C170.928 126.734 170.804 127.722 170.985 128.467C171.043 128.799 171.19 129.109 171.408 129.366C171.626 129.622 171.909 129.816 172.226 129.927C172.445 130.01 172.678 130.044 172.911 130.027C173.144 130.01 173.37 129.942 173.574 129.828C174.033 129.567 174.433 129.215 174.75 128.793C175.105 128.334 175.554 127.692 176.098 126.869C176.694 125.911 177.352 124.993 178.067 124.12C178.637 123.448 179.362 122.926 180.18 122.6C181.018 122.265 181.977 122.288 183.07 122.67C183.961 122.973 184.739 123.538 185.305 124.291C185.909 125.132 186.257 126.13 186.306 127.165C186.393 128.322 186.183 129.626 185.677 131.077C185.324 132.083 184.846 133.04 184.254 133.926C183.72 134.75 183.051 135.477 182.275 136.078L180.227 134.281C180.895 133.714 181.489 133.066 181.995 132.35C182.47 131.678 182.851 130.944 183.129 130.17C183.555 128.956 183.667 127.982 183.463 127.25C183.385 126.915 183.223 126.604 182.992 126.349C182.76 126.093 182.467 125.901 182.141 125.791C181.923 125.706 181.689 125.672 181.455 125.689C181.222 125.707 180.996 125.776 180.793 125.892C180.339 126.158 179.944 126.512 179.63 126.934C179.275 127.383 178.826 128.034 178.283 128.856C177.694 129.806 177.041 130.714 176.329 131.575C175.757 132.248 175.032 132.772 174.214 133.105C173.384 133.443 172.434 133.424 171.362 133.048C170.474 132.748 169.698 132.184 169.139 131.432C168.54 130.586 168.198 129.586 168.155 128.551C168.068 127.386 168.279 126.077 168.786 124.625C169.225 123.362 169.85 122.172 170.641 121.093Z" fill="white"/>
<path d="M180.521 142.446L178.997 145.327L163.476 137.115L165.002 134.234L180.521 142.446Z" fill="white"/>
<path d="M161.212 156.211L159.332 158.657L153.784 154.39C153.771 153.19 153.979 151.998 154.399 150.874C154.824 149.69 155.43 148.579 156.195 147.582C157.205 146.23 158.537 145.155 160.071 144.454C161.516 143.795 163.114 143.546 164.69 143.733C166.302 143.956 167.828 144.596 169.118 145.587C170.408 146.579 171.418 147.889 172.049 149.389C172.636 150.867 172.804 152.477 172.536 154.044C172.249 155.718 171.545 157.291 170.488 158.621C169.666 159.719 168.64 160.649 167.466 161.36C166.391 162.008 165.177 162.39 163.925 162.474L163.59 159.62C164.485 159.517 165.35 159.231 166.131 158.782C166.912 158.332 167.593 157.728 168.133 157.006C168.847 156.109 169.325 155.046 169.523 153.916C169.703 152.864 169.581 151.782 169.17 150.797C168.732 149.765 168.024 148.87 167.12 148.206C166.253 147.517 165.215 147.075 164.118 146.926C163.055 146.786 161.974 146.941 160.994 147.375C159.95 147.838 159.044 148.563 158.362 149.479C157.572 150.465 157.059 151.644 156.878 152.895L161.212 156.211Z" fill="white"/>
<path d="M148.57 179.233L137.549 165.566L139.637 163.882L154.635 167.068L147.173 157.803L149.692 155.782L160.714 169.449L158.623 171.133L143.623 167.958L151.087 177.209L148.57 179.233Z" fill="white"/>
<path d="M124.643 173.131C126.209 173.345 127.686 173.986 128.91 174.986C130.152 176.036 131.101 177.39 131.664 178.916C132.226 180.442 132.384 182.087 132.121 183.692C131.836 185.25 131.129 186.7 130.078 187.885C128.967 189.142 127.555 190.096 125.975 190.658C124.715 191.142 123.371 191.366 122.023 191.318C120.764 191.27 119.533 190.928 118.43 190.319L119.737 187.727C120.518 188.142 121.379 188.384 122.262 188.435C123.144 188.487 124.028 188.349 124.852 188.028C125.917 187.653 126.866 187.008 127.607 186.156C128.309 185.355 128.77 184.374 128.939 183.324C129.093 182.223 128.972 181.1 128.586 180.058C128.2 179.015 127.561 178.084 126.727 177.349C125.914 176.663 124.925 176.219 123.873 176.066C122.754 175.909 121.614 176.041 120.561 176.45C119.724 176.746 118.962 177.221 118.328 177.842C117.694 178.462 117.202 179.213 116.887 180.043L114.215 178.893C114.655 177.713 115.366 176.652 116.292 175.797C117.289 174.881 118.46 174.175 119.735 173.72C121.295 173.111 122.984 172.908 124.643 173.131V173.131Z" fill="white"/>
<path d="M99.3765 178.35L103.614 182.969C103.76 182.933 103.982 182.895 104.287 182.855L108.217 182.329L107.544 177.259L110.775 176.825L113.103 194.226L105.947 195.185C104.599 195.395 103.221 195.319 101.905 194.96C100.794 194.661 99.798 194.035 99.0464 193.164C98.314 192.228 97.8494 191.111 97.7023 189.931C97.5552 188.752 97.731 187.555 98.2111 186.468C98.757 185.407 99.6206 184.544 100.681 183.998L95.9139 178.815L99.3765 178.35ZM102.397 191.965C103.208 192.463 104.317 192.618 105.725 192.43L109.504 191.924L108.574 184.988L104.797 185.495C103.387 185.684 102.358 186.133 101.71 186.843C101.061 187.546 100.811 188.45 100.962 189.562C101.112 190.674 101.579 191.466 102.397 191.965Z" fill="white"/>
<path d="M92.0673 196L88.809 195.903L89.3232 178.357L92.5837 178.451L92.0673 196Z" fill="white"/>
<path d="M72.7152 180.093L81.3268 181.774L83.7969 178.119L87.0934 178.763L75.9757 194.482L72.8319 193.867L68.4172 175.116L71.7653 175.77L72.7152 180.093ZM73.281 182.81L75.0595 190.977L79.7572 184.074L73.281 182.81Z" fill="white"/>
<path d="M58.6716 186.757L64.0609 188.967L63.0144 191.518L49.2268 185.864L50.2732 183.31L55.6625 185.52L61.2764 171.822L64.2944 173.06L58.6716 186.757Z" fill="white"/>
<path d="M44.8794 183.236L42.0725 181.575L51.021 166.469L53.8279 168.131L44.8794 183.236Z" fill="white"/>
<path d="M23.4906 167.354L40.6151 158.782L43.0852 160.842L37.7251 179.235L35.0125 176.969L39.2094 162.822L26.0034 169.435L23.4906 167.354Z" fill="white"/>
<path d="M31.3613 150.912C31.6136 152.483 31.4271 154.093 30.8223 155.565C30.1808 157.055 29.1623 158.353 27.8669 159.331C26.5715 160.309 25.044 160.932 23.4345 161.14C21.8527 161.32 20.2521 161.059 18.8087 160.388C17.2932 159.654 15.9737 158.571 14.9586 157.228C13.9436 155.884 13.2621 154.319 12.9703 152.661C12.7211 151.093 12.9051 149.486 13.5024 148.015C14.1466 146.521 15.1686 145.22 16.4678 144.24C17.767 143.26 19.2988 142.635 20.9127 142.426C22.4907 142.252 24.0862 142.514 25.5251 143.185C27.0528 143.898 28.3758 144.986 29.3717 146.347C30.4104 147.676 31.0949 149.246 31.3613 150.912V150.912ZM24.5595 146.023C23.5899 145.594 22.5199 145.444 21.4696 145.59C20.3753 145.757 19.3396 146.194 18.4554 146.86C17.5713 147.526 16.8663 148.401 16.4037 149.407C15.9775 150.378 15.8275 151.448 15.9703 152.499C16.1438 153.589 16.5828 154.619 17.2486 155.498C17.9144 156.378 18.7864 157.08 19.7877 157.543C20.7584 157.971 21.8291 158.12 22.8798 157.974C23.9743 157.808 25.0103 157.372 25.8942 156.705C26.7782 156.039 27.4825 155.163 27.9435 154.157C28.371 153.186 28.5203 152.115 28.3747 151.064C28.2019 149.975 27.7632 148.945 27.0973 148.065C26.4315 147.185 25.5591 146.483 24.5573 146.021L24.5595 146.023Z" fill="white"/>
<path d="M9.80853 115.922C9.60681 116.224 9.34492 116.48 9.03928 116.676C8.73363 116.872 8.39081 117.003 8.03231 117.06C7.68445 117.128 7.32663 117.127 6.97934 117.056C6.63205 116.985 6.30211 116.847 6.00842 116.648C5.71473 116.45 5.46305 116.196 5.26781 115.9C5.07256 115.604 4.93757 115.273 4.87058 114.925C4.80223 114.577 4.80356 114.22 4.87449 113.873C4.94541 113.526 5.08453 113.196 5.28376 112.904C5.47883 112.601 5.73506 112.343 6.03597 112.146C6.33687 111.949 6.67576 111.817 7.0308 111.758C7.38689 111.68 7.75539 111.678 8.11243 111.752C8.46948 111.825 8.8071 111.973 9.10343 112.185C9.39671 112.384 9.64718 112.639 9.84004 112.936C10.0329 113.233 10.1642 113.566 10.2262 113.914C10.2964 114.26 10.2956 114.616 10.2238 114.961C10.152 115.306 10.0107 115.633 9.80853 115.922V115.922Z" fill="white"/>
<path d="M14.6903 67.2091L11.9014 75.5333L15.2068 78.4638L14.1469 81.6502L0 68.5856L1.01948 65.5407L20.1829 63.6005L19.0983 66.8319L14.6903 67.2091ZM11.9216 67.4179L3.59287 68.1208L9.8265 73.674L11.9216 67.4179Z" fill="white"/>
<path d="M31.6105 46.366L22.1186 39.6294L26.6097 49.9162L25.7654 51.1018L14.7016 50.3002L24.0565 56.965L22.2601 59.4979L7.9537 49.3099L9.51211 47.1272L23.0348 48.2006L17.5332 35.8748L19.0871 33.6832L33.398 43.851L31.6105 46.366Z" fill="white"/>
<path d="M47.3585 28.6576L49.0561 30.7976L38.7266 38.9781L27.8447 25.2219L37.8868 17.2592L39.5844 19.4037L32.0978 25.3387L34.9339 28.9158L41.5762 23.65L43.2424 25.7519L36.6001 31.0177L39.5957 34.8059L47.3585 28.6576Z" fill="white"/>
<path d="M51.6228 12.685L46.3502 15.1551L45.1826 12.6536L58.685 6.36609L59.8527 8.86538L54.5779 11.3063L60.8318 24.7212L57.8766 26.0954L51.6228 12.685Z" fill="white"/>
<path d="M83.1862 0.570374L86.3546 17.8364L83.148 18.4269L81.8007 11.0166L72.8701 12.6559L74.2175 20.0662L71.0108 20.659L67.8424 3.39078L71.049 2.80244L72.3582 9.93204L81.2887 8.28831L79.9773 1.15871L83.1862 0.570374Z" fill="white"/>
<path d="M101.696 12.1259L101.211 18.3012L97.9618 18.0452L98.4424 11.9193L92.4602 0L95.9363 0.273956L100.391 9.20673L106.23 1.0846L109.428 1.3361L101.696 12.1259Z" fill="white"/>
<path d="M114.051 20.2099C112.966 19.4613 112.17 18.6717 111.664 17.8408L113.51 15.7727C114.083 16.5962 114.791 17.3168 115.605 17.9037C116.461 18.5477 117.419 19.0441 118.439 19.3723C119.683 19.772 120.674 19.87 121.412 19.6664C121.741 19.5973 122.046 19.442 122.295 19.2163C122.545 18.9906 122.73 18.7026 122.831 18.382C122.908 18.161 122.935 17.9259 122.911 17.6932C122.888 17.4605 122.814 17.2358 122.694 17.0347C122.422 16.5826 122.058 16.1925 121.625 15.8894C121.158 15.5481 120.503 15.1215 119.667 14.605C118.692 14.0355 117.755 13.4024 116.863 12.7097C116.176 12.1598 115.636 11.4485 115.291 10.6394C114.929 9.81299 114.927 8.84292 115.277 7.75158C115.556 6.85219 116.099 6.05738 116.836 5.47011C117.661 4.84201 118.652 4.46823 119.687 4.3945C120.839 4.27024 122.148 4.44315 123.615 4.91322C124.631 5.23844 125.601 5.69116 126.503 6.26054C127.34 6.76869 128.085 7.41566 128.706 8.17375L126.956 10.2756C126.373 9.62133 125.707 9.04542 124.976 8.56222C124.292 8.10466 123.548 7.74277 122.766 7.48661C121.537 7.09439 120.559 7.01055 119.831 7.23511C119.497 7.32084 119.191 7.49107 118.942 7.7294C118.693 7.96774 118.51 8.26615 118.41 8.59591C118.332 8.81487 118.304 9.04854 118.328 9.27975C118.352 9.51096 118.427 9.73384 118.549 9.93201C118.826 10.3749 119.191 10.7568 119.62 11.0548C120.092 11.3991 120.745 11.828 121.58 12.3415C122.548 12.8993 123.474 13.5259 124.351 14.2165C125.04 14.7695 125.586 15.4805 125.941 16.2891C126.303 17.1065 126.31 18.0586 125.964 19.1387C125.687 20.0376 125.143 20.8305 124.403 21.4112C123.575 22.0353 122.583 22.4044 121.549 22.4734C120.387 22.5946 119.074 22.421 117.608 21.9524C116.342 21.5517 115.144 20.9644 114.051 20.2099V20.2099Z" fill="white"/>
<path d="M140.389 15.5885L135.388 12.6177L136.798 10.2441L149.598 17.8543L148.206 20.2256L143.192 17.2525L135.631 29.9757L132.826 28.3095L140.389 15.5885Z" fill="white"/>
</svg>
