<svg width="18" height="26" viewBox="0 0 18 26" fill="none" xmlns="http://www.w3.org/2000/svg">
<path fill-rule="evenodd" clip-rule="evenodd" d="M9 0C4.05818 0 0 3.55875 0 8.125C0 9.62 0.9 11.7812 1.63636 13C3.82909 16.6562 4.54909 17.5175 4.90909 19.5V21.125H13.0909V19.5C13.4509 17.5175 14.1709 16.6562 16.3636 13C17.1 11.7812 18 9.62 18 8.125C18 3.55875 13.9418 0 9 0ZM14.9564 12.155C14.5473 12.87 14.1873 13.455 13.86 13.9587C12.4527 16.25 11.8145 17.3062 11.4873 19.2075C11.4545 19.2887 11.4545 19.3862 11.4545 19.4837H6.54545C6.54545 19.3862 6.54545 19.2725 6.51273 19.2075C6.18545 17.3062 5.54727 16.2337 4.14 13.9587C3.81273 13.455 3.45273 12.87 3.04364 12.155C2.35636 11.0175 1.63636 9.18125 1.63636 8.125C1.63636 4.55 4.94182 1.625 9 1.625C10.9964 1.625 12.8618 2.3075 14.2691 3.55875C15.6273 4.7775 16.3636 6.4025 16.3636 8.125C16.3636 9.1975 15.6436 11.0175 14.9564 12.155ZM4.90909 22.75H13.0909C12.7145 24.6025 10.9636 26 9 26C7.03636 26 5.28545 24.6025 4.90909 22.75Z" fill="white"/>
</svg>
