<svg width="22" height="26" viewBox="0 0 22 26" fill="none" xmlns="http://www.w3.org/2000/svg">
<path d="M21.9192 19.5126C21.9255 19.5034 21.9318 19.4943 21.9375 19.4845C21.9433 19.4761 21.9484 19.4673 21.9531 19.4582L21.9668 19.4296C21.9709 19.4199 21.9749 19.4101 21.9783 19.4004C21.9818 19.3907 21.9846 19.381 21.9875 19.3707C21.9904 19.3603 21.9927 19.3506 21.9944 19.3403C21.9961 19.33 21.9978 19.3197 21.9996 19.3094C22.0001 19.2989 22.0001 19.2884 21.9996 19.2779C21.9996 19.2676 21.9996 19.2579 21.9996 19.2476C21.9996 19.2373 21.9996 19.2253 21.9996 19.2144C21.9999 19.2098 21.9999 19.2052 21.9996 19.2007C21.9988 19.1953 21.9976 19.1899 21.9961 19.1846C21.9944 19.1737 21.9921 19.1628 21.9892 19.152C21.9892 19.1417 21.9835 19.132 21.9806 19.1217C21.9777 19.1114 21.9737 19.1022 21.9697 19.0925C21.9657 19.0828 21.9605 19.0725 21.9554 19.0622C21.9502 19.0519 21.9513 19.0496 21.9513 19.0496L11.3787 0.1986L11.3707 0.186009L11.3627 0.172844L11.3575 0.164832L11.3483 0.151668L11.3397 0.140794L11.3345 0.134498V0.131637L11.3236 0.12019L11.315 0.11046L11.3098 0.105309L11.3058 0.101303L11.2949 0.0910009L11.2846 0.0824163L11.2805 0.0784095L11.2754 0.0744036L11.2627 0.0646732L11.2518 0.0572334L11.2484 0.0543716L11.2421 0.0509377L11.2277 0.0412081L11.2162 0.0349124L11.2093 0.0314786L11.191 0.022321L11.1806 0.0171702H11.1743L11.1536 0.00915756L11.1439 0.00572282H11.1398L11.1197 0H11.1111H11.1054H11.0985H11.0801H11.0721H11.064H11.0554H11.0405H10.9831H10.9699H10.9601H10.9538H10.9423H10.9268H10.9187H10.9147L10.9021 0.00343387L10.8854 0.00858466H10.8785L10.8653 0.0137355L10.8493 0.0194592L10.8389 0.0240379L10.8332 0.0268998H10.8274L10.8131 0.0337675L10.8039 0.0383463L10.7918 0.0457869L10.7798 0.0532267L10.7717 0.0583775H10.7683L10.7568 0.066963L10.7465 0.0744036L10.7401 0.0795544L10.7355 0.0835603L10.7252 0.0927179L10.7154 0.101875L10.6953 0.105309L10.6907 0.11046L10.681 0.120763L10.6718 0.131064L10.6689 0.134498C10.667 0.136646 10.6653 0.138944 10.6638 0.141367C10.6603 0.144801 10.6574 0.148807 10.6546 0.152241L10.646 0.16426L10.6408 0.172272L10.6322 0.185436C10.6322 0.190014 10.627 0.193448 10.6247 0.198027L0.0515424 19.0496C0.0515424 19.0547 0.0469478 19.0599 0.0440764 19.065C0.041205 19.0702 0.0343132 19.0851 0.0302932 19.0959C0.0262732 19.1068 0.0228283 19.1148 0.0193826 19.1245C0.0159369 19.1343 0.0130652 19.1446 0.0101938 19.1549C0.00732236 19.1652 0.00559947 19.1766 0.00387662 19.1869C0.00215376 19.1972 0.00100533 19.1978 0.000431047 19.2035C-0.000143238 19.2093 0.000431047 19.2127 0.000431047 19.2173C-0.000140992 19.2281 -0.000140992 19.239 0.000431047 19.2499C-0.000143682 19.2602 -0.000143682 19.2705 0.000431047 19.2808C0.000431047 19.2917 0.000431222 19.302 0.00330265 19.3123C0.00617407 19.3226 0.00330188 19.3329 0.00789616 19.3432C0.0124904 19.3535 0.0124907 19.3632 0.0153621 19.3729C0.0182336 19.3827 0.0211052 19.3935 0.0245509 19.4038C0.0279966 19.4142 0.0320164 19.4227 0.0360364 19.4319C0.0399363 19.4419 0.0445423 19.4517 0.0498196 19.4611C0.0544139 19.4702 0.0595821 19.4788 0.0647507 19.4874C0.0705347 19.4971 0.0768619 19.5065 0.0837022 19.5155C0.0869022 19.5196 0.0897814 19.524 0.0923161 19.5286L0.104377 19.5418C0.108971 19.5469 0.112991 19.5521 0.117585 19.5567C0.122179 19.5612 0.138833 19.5773 0.149745 19.587L0.159507 19.5962C0.175013 19.6082 0.190519 19.619 0.206599 19.6293H0.210045L10.7769 25.9519H10.7803L10.7964 25.9605L10.8045 25.9651L10.8171 25.9708L10.8286 25.9765L10.8366 25.9794H10.8424L10.8607 25.9863H10.8671L10.8785 25.9891L10.8935 25.9931L10.9061 25.9966L10.9245 26H10.9371H10.9469H10.9526C10.9681 26 10.9831 26 10.9986 26H11.0014C11.0164 26 11.0319 26 11.0468 26H11.0531H11.0629H11.0755L11.0933 25.9966L11.1065 25.9931L11.1215 25.9891L11.1324 25.9863H11.1393L11.1576 25.9794H11.1628L11.1714 25.9765L11.1829 25.9708L11.1955 25.9651L11.2036 25.9605L11.2197 25.9519H11.2231L21.7928 19.6282C21.8092 19.6181 21.8249 19.607 21.8399 19.595L21.8503 19.5858C21.8613 19.5763 21.8719 19.5662 21.8818 19.5555C21.8865 19.5508 21.891 19.5459 21.8951 19.5406C21.8991 19.5361 21.9037 19.532 21.9071 19.5275C21.9106 19.5229 21.9157 19.5166 21.9192 19.5126ZM17.2858 17.6039L17.0779 17.5466L12.8001 4.50541L20.6804 18.5585L17.2858 17.6039ZM10.9997 17.4665H5.86044L10.9997 1.80056L16.1396 17.4665H10.9997ZM10.9997 18.3313H15.8737L10.9997 24.8559L6.12576 18.3313H10.9997ZM9.2022 4.50541L4.92205 17.5455L4.71359 17.6027L1.31899 18.5574L9.2022 4.50541ZM3.17221 18.9351L5.09491 18.3948L9.34462 24.0838L1.51712 19.401L3.17221 18.9351ZM12.6605 24.0861L16.9103 18.3971L20.4886 19.4033L12.6605 24.0861Z" fill="white"/>
</svg>
