<svg width="26" height="26" viewBox="0 0 26 26" fill="none" xmlns="http://www.w3.org/2000/svg">
<path d="M0 13.3995C0.101665 13.2232 0.176219 13.0335 0.304995 12.8844C0.657434 12.4912 1.09798 12.376 1.61309 12.5048C1.7012 12.5251 1.83675 12.5116 1.89097 12.4574C3.15839 11.2035 4.41904 9.94284 5.67969 8.6822C5.69324 8.66864 5.70002 8.65508 5.7068 8.64153C5.18492 7.77399 5.24592 6.70312 6.05924 5.93724C6.5879 5.44247 7.54355 5.09003 8.62797 5.72035C8.67542 5.67291 8.73642 5.63224 8.79064 5.57802C9.99706 4.3716 11.2035 3.15839 12.4099 1.95875C12.5251 1.84353 12.559 1.75542 12.5048 1.58597C12.315 0.969207 12.62 0.345661 13.2165 0.0881097C13.2775 0.060999 13.3317 0.0338884 13.3927 0H14.0027C14.4839 0.196552 14.8363 0.49477 14.9312 1.03698C15.0803 1.90453 14.2602 2.67718 13.413 2.43996C13.2097 2.38574 13.0945 2.42641 12.9589 2.56874C12.3557 3.18551 11.7389 3.78872 11.1289 4.39871C11.0679 4.45971 11.0137 4.52071 10.9256 4.61559C15.1684 2.99573 19.113 3.47695 22.8611 6.07957C23.0373 5.8898 23.2339 5.66613 23.4372 5.4628C23.688 5.21203 23.8913 5.21203 24.1353 5.45602C24.6911 6.01179 25.2536 6.56756 25.8026 7.12333C26.0466 7.37411 26.0466 7.57066 25.7958 7.82143C25.2468 8.37042 24.6978 8.92619 24.1421 9.46841C23.8913 9.71918 23.6812 9.71918 23.4236 9.46841C22.8746 8.92619 22.3256 8.38398 21.7834 7.84176C21.5259 7.58421 21.5259 7.36733 21.7834 7.103C21.919 6.96744 22.0545 6.82511 22.1901 6.68956C18.7674 4.02594 13.3723 3.64639 9.32607 6.47945C9.70562 7.37411 9.6514 8.23487 8.93297 8.94652C8.22131 9.6514 7.37411 9.7124 6.47945 9.32607C3.97849 12.7624 3.65994 18.1574 6.70312 22.2511C6.84545 22.0884 6.97422 21.919 7.12333 21.7767C7.35377 21.5462 7.58421 21.5394 7.80788 21.7631C8.37042 22.3256 8.93297 22.8882 9.48874 23.4575C9.71918 23.6947 9.7124 23.9048 9.48874 24.1421C8.92619 24.7046 8.36365 25.2672 7.8011 25.8297C7.57066 26.0534 7.36733 26.0601 7.13689 25.8297C6.57434 25.2739 6.01179 24.7114 5.44925 24.1421C5.21203 23.9048 5.21203 23.7015 5.44925 23.4643C5.65935 23.2542 5.87624 23.0576 6.07957 22.8679C3.48372 19.1401 3.00251 15.1888 4.61559 10.9595C4.55459 11.0069 4.52071 11.034 4.48682 11.0679C3.82938 11.7254 3.16517 12.376 2.51452 13.0402C2.45352 13.1012 2.41285 13.23 2.43996 13.3113C2.62296 14.023 2.29763 14.6872 1.6402 14.9041C0.975985 15.121 0.325328 14.7889 0.0542214 14.1043C0.040666 14.0772 0.020333 14.0501 0.00677767 14.023V13.413L0 13.3995ZM8.72964 7.48933C8.72964 6.77767 8.18065 6.20835 7.47577 6.20835C6.78445 6.20835 6.2219 6.76412 6.20835 7.46222C6.19479 8.16709 6.76412 8.73642 7.46899 8.73642C8.17387 8.73642 8.72964 8.1942 8.72964 7.4961V7.48933ZM8.63475 23.7828L7.48255 22.6306L6.33712 23.7828L7.47577 24.935L8.62797 23.7828H8.63475ZM23.8032 6.33034L22.6849 7.44866L23.81 8.58053L24.935 7.45544L23.8032 6.32357V6.33034ZM13.6909 1.67408C13.9146 1.67408 14.1043 1.49787 14.1179 1.26742C14.1314 1.02343 13.9484 0.820098 13.7112 0.81332C13.4876 0.81332 13.2978 0.98954 13.2842 1.21998C13.2707 1.46398 13.4537 1.66731 13.6909 1.67408ZM1.24031 13.2842C1.0031 13.2842 0.847209 13.4401 0.853986 13.6841C0.853986 13.9146 1.05054 14.1043 1.2742 14.0976C1.49109 14.0976 1.67408 13.9078 1.66731 13.6841C1.66731 13.4537 1.47075 13.2775 1.23354 13.2775L1.24031 13.2842Z" fill="white"/>
<path d="M10.4715 8.66186C10.6003 8.70931 10.6884 8.73642 10.7697 8.7703C14.1924 10.1394 17.6084 11.5017 21.0311 12.864C21.248 12.9521 21.3768 13.0809 21.4513 13.2978C21.9664 14.6533 22.4883 16.0089 23.017 17.3576C23.0644 17.4728 23.1728 17.6016 23.2881 17.6558C24.0675 18.0557 24.8537 18.442 25.6399 18.8351C26.0534 19.0453 26.1008 19.3164 25.7687 19.6485C23.7286 21.6885 21.6885 23.7286 19.6552 25.7687C19.3163 26.1076 19.052 26.0601 18.8284 25.6264C18.442 24.8469 18.0557 24.0675 17.6558 23.3016C17.5948 23.1864 17.4796 23.078 17.3576 23.0305C16.0088 22.5019 14.6533 21.98 13.2978 21.4649C13.0877 21.3835 12.9521 21.2616 12.864 21.0447C11.5085 17.6287 10.1394 14.2128 8.77029 10.8036C8.65507 10.5189 8.68896 10.3156 8.91262 10.1055C9.32606 9.7124 9.72594 9.29219 10.1394 8.8923C10.2343 8.79742 10.3698 8.73642 10.4715 8.66864V8.66186ZM9.78016 10.4173C9.59717 10.5122 9.59039 10.6409 9.67172 10.8375C10.9663 14.0501 12.2472 17.2695 13.5418 20.4821C13.5892 20.5973 13.7112 20.7126 13.8197 20.76C15.06 21.248 16.3003 21.7224 17.5406 22.2036C17.6897 22.2646 17.7914 22.2579 17.9134 22.1291C19.3096 20.7193 20.7193 19.3164 22.1291 17.9134C22.2511 17.7914 22.2646 17.6965 22.2036 17.5406C21.7224 16.3071 21.248 15.0735 20.7803 13.8332C20.7193 13.6706 20.6244 13.5757 20.4618 13.5147C17.2424 12.2337 14.023 10.9459 10.8104 9.6514C10.5935 9.56329 10.4918 9.62429 10.4173 9.76662L15.6361 14.9854C16.9035 14.1992 18.2523 14.6669 18.9029 15.548C19.6146 16.5036 19.5197 17.8388 18.6792 18.6725C17.8388 19.5129 16.5104 19.6078 15.5547 18.8961C14.6872 18.2523 14.1992 16.9171 14.999 15.6293L9.78694 10.4173H9.78016ZM18.3742 22.8814L19.3502 24.8334L24.8198 19.3638L22.8746 18.3878L18.3742 22.8882V22.8814ZM16.9848 15.4192C16.1037 15.4192 15.4124 16.1105 15.4124 16.9916C15.4124 17.8524 16.1105 18.5573 16.9713 18.564C17.8253 18.5708 18.5572 17.8456 18.5505 16.9848C18.5505 16.1241 17.8456 15.426 16.9848 15.426V15.4192Z" fill="white"/>
</svg>
